<svg width="24" height="24" viewBox="0 0 24 24" fill="none" xmlns="http://www.w3.org/2000/svg">
<path d="M9.53033 5.46967C9.23744 5.17678 8.76256 5.17678 8.46967 5.46967C8.17678 5.76256 8.17678 6.23744 8.46967 6.53033L9.53033 5.46967ZM14.2929 11.2929L13.7626 11.8232H13.7626L14.2929 11.2929ZM14.2929 12.7071L13.7626 12.1768H13.7626L14.2929 12.7071ZM8.46967 17.4697C8.17678 17.7626 8.17678 18.2374 8.46967 18.5303C8.76256 18.8232 9.23744 18.8232 9.53033 18.5303L8.46967 17.4697ZM8.46967 6.53033L13.7626 11.8232L14.8232 10.7626L9.53033 5.46967L8.46967 6.53033ZM13.7626 12.1768L8.46967 17.4697L9.53033 18.5303L14.8232 13.2374L13.7626 12.1768ZM13.7626 11.8232C13.8602 11.9209 13.8602 12.0791 13.7626 12.1768L14.8232 13.2374C15.5066 12.554 15.5066 11.446 14.8232 10.7626L13.7626 11.8232Z" fill="white"/>
</svg>
