<svg width="24" height="24" viewBox="0 0 24 24" fill="none" xmlns="http://www.w3.org/2000/svg">
<path d="M19.75 15C19.75 14.5858 19.4142 14.25 19 14.25C18.5858 14.25 18.25 14.5858 18.25 15H19.75ZM5.75 15C5.75 14.5858 5.41421 14.25 5 14.25C4.58579 14.25 4.25 14.5858 4.25 15H5.75ZM17.2446 11.816C17.5375 11.5232 17.5375 11.0483 17.2446 10.7554C16.9517 10.4625 16.4768 10.4625 16.184 10.7554L17.2446 11.816ZM12.7071 15.2929L13.2374 15.8232L12.7071 15.2929ZM11.2929 15.2929L10.7626 15.8232L11.2929 15.2929ZM7.81605 10.7554C7.52315 10.4625 7.04828 10.4625 6.75539 10.7554C6.46249 11.0483 6.46249 11.5232 6.75539 11.816L7.81605 10.7554ZM11.25 15.2143C11.25 15.6285 11.5858 15.9643 12 15.9643C12.4142 15.9643 12.75 15.6285 12.75 15.2143H11.25ZM12.75 5C12.75 4.58579 12.4142 4.25 12 4.25C11.5858 4.25 11.25 4.58579 11.25 5L12.75 5ZM18.25 15V18H19.75V15H18.25ZM18 18.25H6V19.75H18V18.25ZM5.75 18V15H4.25V18H5.75ZM6 18.25C5.86193 18.25 5.75 18.1381 5.75 18H4.25C4.25 18.9665 5.0335 19.75 6 19.75V18.25ZM18.25 18C18.25 18.1381 18.1381 18.25 18 18.25V19.75C18.9665 19.75 19.75 18.9665 19.75 18H18.25ZM16.184 10.7554L12.1768 14.7626L13.2374 15.8232L17.2446 11.816L16.184 10.7554ZM11.8232 14.7626L7.81605 10.7554L6.75539 11.816L10.7626 15.8232L11.8232 14.7626ZM12.1768 14.7626C12.0791 14.8602 11.9209 14.8602 11.8232 14.7626L10.7626 15.8232C11.446 16.5066 12.554 16.5066 13.2374 15.8232L12.1768 14.7626ZM12.75 15.2143L12.75 5L11.25 5L11.25 15.2143H12.75Z" fill="#EB5757"/>
</svg>
