<svg width="24" height="24" viewBox="0 0 24 24" fill="none" xmlns="http://www.w3.org/2000/svg">
<path d="M14.5303 6.53033C14.8232 6.23744 14.8232 5.76256 14.5303 5.46967C14.2374 5.17678 13.7625 5.17678 13.4696 5.46967L14.5303 6.53033ZM8.70708 11.2929L9.23741 11.8232H9.23741L8.70708 11.2929ZM8.70708 12.7071L9.23741 12.1768H9.23741L8.70708 12.7071ZM13.4696 18.5303C13.7625 18.8232 14.2374 18.8232 14.5303 18.5303C14.8232 18.2374 14.8232 17.7626 14.5303 17.4697L13.4696 18.5303ZM13.4696 5.46967L8.17675 10.7626L9.23741 11.8232L14.5303 6.53033L13.4696 5.46967ZM8.17675 13.2374L13.4696 18.5303L14.5303 17.4697L9.23741 12.1768L8.17675 13.2374ZM8.17675 10.7626C7.49333 11.446 7.49333 12.554 8.17675 13.2374L9.23741 12.1768C9.13978 12.0791 9.13978 11.9209 9.23741 11.8232L8.17675 10.7626Z" fill="white"/>
</svg>
