<svg width="24" height="24" viewBox="0 0 24 24" fill="none" xmlns="http://www.w3.org/2000/svg">
<path d="M18.25 9C18.25 9.41421 18.5858 9.75 19 9.75C19.4142 9.75 19.75 9.41421 19.75 9H18.25ZM16 16.75C16.4142 16.75 16.75 16.4142 16.75 16C16.75 15.5858 16.4142 15.25 16 15.25V16.75ZM14 19.75C14.4142 19.75 14.75 19.4142 14.75 19C14.75 18.5858 14.4142 18.25 14 18.25V19.75ZM8 18.25C7.58579 18.25 7.25 18.5858 7.25 19C7.25 19.4142 7.58579 19.75 8 19.75V18.25ZM3.75 14V6H2.25V14H3.75ZM17 3.25H5V4.75H17V3.25ZM18.25 6V9H19.75V6H18.25ZM16 15.25H5V16.75H16V15.25ZM2.25 14C2.25 15.5188 3.48122 16.75 5 16.75V15.25C4.30964 15.25 3.75 14.6904 3.75 14H2.25ZM17 4.75C17.6904 4.75 18.25 5.30964 18.25 6H19.75C19.75 4.48122 18.5188 3.25 17 3.25V4.75ZM3.75 6C3.75 5.30964 4.30964 4.75 5 4.75V3.25C3.48122 3.25 2.25 4.48122 2.25 6H3.75ZM20.25 10V18H21.75V10H20.25ZM20 18.25H18V19.75H20V18.25ZM17.75 18V10H16.25V18H17.75ZM20 8.25H18V9.75H20V8.25ZM18 18.25C17.8619 18.25 17.75 18.1381 17.75 18H16.25C16.25 18.9665 17.0335 19.75 18 19.75V18.25ZM20.25 18C20.25 18.1381 20.1381 18.25 20 18.25V19.75C20.9665 19.75 21.75 18.9665 21.75 18H20.25ZM21.75 10C21.75 9.0335 20.9665 8.25 20 8.25V9.75C20.1381 9.75 20.25 9.86193 20.25 10H21.75ZM17.75 10C17.75 9.86193 17.8619 9.75 18 9.75V8.25C17.0335 8.25 16.25 9.0335 16.25 10H17.75ZM14 18.25H8V19.75H14V18.25Z" fill="white"/>
</svg>
