<svg width="24" height="24" viewBox="0 0 24 24" fill="none" xmlns="http://www.w3.org/2000/svg">
<g clip-path="url(#clip0)">
<path d="M15.156 19.432L15.792 18.348C15.792 18.348 14.348 18.939 11.932 18.939C9.51401 18.939 8.09201 18.371 8.09201 18.371L8.80301 19.554L9.05501 23.283C9.05501 23.686 10.369 24.001 11.991 24.001C13.614 24.001 14.929 23.687 14.929 23.283L15.158 19.448V19.432H15.156ZM15.771 12.386C15.002 12.432 14.618 13.289 14.232 14.191C14.089 14.521 13.602 15.928 13.284 15.754C12.966 15.581 13.697 14.425 13.903 13.737C13.666 13.911 12.798 14.586 12.574 13.952C12.216 14.266 11.445 14.432 11.532 13.623C11.341 13.968 10.911 14.446 10.393 14.237C9.72001 13.982 10.788 11.826 11.053 11.93C11.319 12.051 11 12.53 10.917 12.724C10.731 13.143 10.519 13.682 10.662 13.787C10.902 13.981 11.566 13.084 11.581 13.068C11.705 12.903 12.06 11.839 12.344 11.961C12.629 12.095 11.633 13.502 12.004 13.787C12.08 13.847 12.387 13.757 12.573 13.548C12.693 13.428 12.651 13.128 13.052 12.17C13.456 11.211 13.816 10.014 14.091 10.104C14.366 10.194 14.14 10.807 14.04 11.047C13.576 12.125 12.772 13.891 13.15 13.757C13.524 13.622 13.719 13.622 14.093 13.188C14.467 12.754 14.438 12.036 14.692 12.051C14.932 12.065 14.902 12.305 14.842 12.469C15.082 12.199 15.994 11.601 16.205 12.185C16.459 12.873 14.901 13.877 15.291 13.817C15.666 13.772 16.279 13.383 16.549 13.024L17.268 6.52399C17.268 6.52399 16.534 7.12399 11.907 7.12399C7.28001 7.12399 6.62301 6.53999 6.62301 6.53999L7.23601 12.47C7.56601 11.542 8.34401 9.65599 9.55801 9.72999C10.112 9.75999 10.861 10.839 10.216 10.869C9.94601 10.884 9.91601 10.33 9.60201 10.255C9.36301 10.209 9.04801 10.39 8.83901 10.6C8.43501 11.004 7.53501 12.606 7.65501 13.401C7.80501 14.419 9.06201 13.055 9.27201 12.651C9.42101 12.368 9.52601 11.513 9.84001 11.603C10.17 11.693 9.81101 12.577 9.57001 13.34C9.30001 14.209 9.16601 15.121 8.83801 15.016C8.50801 14.912 9.04701 13.789 9.01601 13.594C8.70301 13.893 8.13301 14.614 7.38501 14.253L7.75901 17.952C7.75901 17.952 8.77801 18.745 11.832 18.745C14.886 18.745 15.95 17.952 15.95 17.952L16.429 13.669C16.04 14.059 14.812 14.732 14.737 13.969C14.678 13.355 16.07 12.471 15.711 12.455L15.771 12.386V12.386ZM17.346 0.66899L14.687 3.46899L14.201 5.36999C16.082 5.48999 17.39 5.75599 17.39 6.06399C17.39 6.48299 14.976 6.82099 11.999 6.82099C9.02201 6.82099 6.60901 6.47799 6.60901 6.05799C6.60901 5.63899 9.02301 5.29399 12 5.29399C12.423 5.29399 12.844 5.29399 13.264 5.30999L13.825 3.03399L16.65 0.0389899C16.718 -0.0510101 16.93 0.0239899 17.124 0.18899C17.318 0.33799 17.423 0.53299 17.363 0.62299V0.65299L17.346 0.66899ZM13.512 6.46399C13.512 6.46399 12.989 6.46399 12.902 6.38399C12.88 6.35899 12.866 6.32599 12.866 6.29399C12.866 6.23599 12.905 6.20299 12.956 6.18399L13 6.25899C12.979 6.26499 12.971 6.27399 12.967 6.28199C12.967 6.32299 13.281 6.35099 13.522 6.34799C13.761 6.34499 14.053 6.32499 14.055 6.28399C14.055 6.27199 14.032 6.26099 13.994 6.25099L14.039 6.17899C14.102 6.19899 14.156 6.23699 14.156 6.29999C14.156 6.40999 14.015 6.42799 13.926 6.44099C13.819 6.45599 13.514 6.46399 13.514 6.46399H13.512V6.46399Z" fill="white"/>
</g>
<defs>
<clipPath id="clip0">
<rect width="24" height="24" fill="white"/>
</clipPath>
</defs>
</svg>
