<svg width="24" height="24" viewBox="0 0 24 24" fill="none" xmlns="http://www.w3.org/2000/svg">
<path d="M19 17V11.0292C19 10.3833 18.6881 9.77719 18.1625 9.40177L13.1625 5.83034C12.4671 5.33363 11.5329 5.33363 10.8375 5.83034L5.83752 9.40177C5.31193 9.77719 5 10.3833 5 11.0292V17C5 18.1046 5.89543 19 7 19H9C9.55228 19 10 18.5523 10 18V15C10 14.4477 10.4477 14 11 14H13C13.5523 14 14 14.4477 14 15V18C14 18.5523 14.4477 19 15 19H17C18.1046 19 19 18.1046 19 17Z" stroke="white" stroke-width="1.5" stroke-linecap="round" stroke-linejoin="round"/>
</svg>
