<svg width="24" height="24" viewBox="0 0 24 24" fill="none" xmlns="http://www.w3.org/2000/svg">
<mask id="mask0" mask-type="alpha" maskUnits="userSpaceOnUse" x="3" y="3" width="18" height="18">
<circle cx="12" cy="12" r="8" fill="#C4C4C4" stroke="black" stroke-width="1.5"/>
</mask>
<g mask="url(#mask0)">
<path d="M5.3795 15.241L5.12938 15.7412C5.04484 15.9103 5.00996 16.0998 5.02877 16.2879L5.39714 19.9717C5.45338 20.5341 5.96413 20.9381 6.52435 20.8634L12.1321 20.1157C12.6289 20.0495 13 19.6257 13 19.1245V18.1623C13 18.0548 12.9826 17.948 12.9487 17.846L12.3437 16.031C12.1586 15.476 11.5388 15.1977 11.001 15.4281L9.12227 16.2333C8.74642 16.3944 8.31038 16.3104 8.02124 16.0213L6.98103 14.9811C6.49839 14.4984 5.68475 14.6305 5.3795 15.241Z" stroke="white" stroke-width="1.5" stroke-linecap="round" stroke-linejoin="round"/>
<path d="M1.3795 4.24095L1.12938 4.7412C1.04484 4.91026 1.00996 5.09983 1.02877 5.28791L1.39714 8.97169C1.45338 9.53406 1.96413 9.93811 2.52435 9.86342L8.13214 9.11571C8.62895 9.04947 8.99998 8.62569 8.99998 8.12448V7.32455C8.99998 7.10959 8.96532 6.89603 8.89734 6.6921L8.34365 5.03103C8.15865 4.47601 7.53879 4.19765 7.00105 4.42811L5.12227 5.2333C4.74642 5.39438 4.31038 5.3104 4.02124 5.02127L2.98103 3.98106C2.49839 3.49842 1.68475 3.63045 1.3795 4.24095Z" stroke="white" stroke-width="1.5" stroke-linecap="round" stroke-linejoin="round"/>
<path d="M20.7553 13.4466L20.9827 11.1732C20.9941 11.0586 20.9857 10.9429 20.9578 10.8311L19.3723 4.4893C19.197 3.78815 18.3587 3.49877 17.7882 3.94248L15.3002 5.87759C14.86 6.21995 14.7849 6.85619 15.1333 7.29164L15.9899 8.3624C16.2868 8.73347 16.2815 9.26221 15.9772 9.62727L15.3668 10.3598C14.824 11.0111 15.2872 12 16.135 12H17C17.3147 12 17.6111 12.1482 17.8 12.4L18.9603 13.9471C19.5071 14.6762 20.6646 14.3535 20.7553 13.4466Z" stroke="white" stroke-width="1.5" stroke-linecap="round" stroke-linejoin="round"/>
</g>
<path d="M20 12C20 16.4183 16.4183 20 12 20C7.58172 20 4 16.4183 4 12C4 7.58172 7.58172 4 12 4C16.4183 4 20 7.58172 20 12Z" stroke="white" stroke-width="1.5"/>
</svg>
