<svg width="24" height="24" viewBox="0 0 24 24" fill="none" xmlns="http://www.w3.org/2000/svg">
<path d="M13 14.25C12.5858 14.25 12.25 14.5858 12.25 15C12.25 15.4142 12.5858 15.75 13 15.75V14.25ZM11 15.75C11.4142 15.75 11.75 15.4142 11.75 15C11.75 14.5858 11.4142 14.25 11 14.25V15.75ZM10.8571 15.75C11.2714 15.75 11.6071 15.4142 11.6071 15C11.6071 14.5858 11.2714 14.25 10.8571 14.25V15.75ZM13.1429 14.25C12.7286 14.25 12.3929 14.5858 12.3929 15C12.3929 15.4142 12.7286 15.75 13.1429 15.75V14.25ZM16 7V7.75H16.75V7H16ZM8 7H7.25V7.75H8V7ZM19.25 9V15H20.75V9H19.25ZM4.75 15V9H3.25V15H4.75ZM18 6.25H6V7.75H18V6.25ZM20 14.25H13V15.75H20V14.25ZM11 14.25H4V15.75H11V14.25ZM20.75 9C20.75 7.48122 19.5188 6.25 18 6.25V7.75C18.6904 7.75 19.25 8.30964 19.25 9H20.75ZM4.75 9C4.75 8.30964 5.30964 7.75 6 7.75V6.25C4.48122 6.25 3.25 7.48122 3.25 9H4.75ZM19.25 15V18H20.75V15H19.25ZM18 19.25H6V20.75H18V19.25ZM4.75 18V15H3.25V18H4.75ZM10.8571 14.25H4V15.75H10.8571V14.25ZM20 14.25H13.1429V15.75H20V14.25ZM6 19.25C5.30964 19.25 4.75 18.6904 4.75 18H3.25C3.25 19.5188 4.48122 20.75 6 20.75V19.25ZM19.25 18C19.25 18.6904 18.6904 19.25 18 19.25V20.75C19.5188 20.75 20.75 19.5188 20.75 18H19.25ZM15.25 6V7H16.75V6H15.25ZM16 6.25H8V7.75H16V6.25ZM8.75 7V6H7.25V7H8.75ZM14 3.25H10V4.75H14V3.25ZM16.75 6C16.75 4.48122 15.5188 3.25 14 3.25V4.75C14.6904 4.75 15.25 5.30964 15.25 6H16.75ZM8.75 6C8.75 5.30964 9.30964 4.75 10 4.75V3.25C8.48122 3.25 7.25 4.48122 7.25 6H8.75ZM12.25 14V16H13.75V14H12.25ZM11.75 16V14H10.25V16H11.75ZM12 16.25C11.8619 16.25 11.75 16.1381 11.75 16H10.25C10.25 16.9665 11.0335 17.75 12 17.75V16.25ZM12.25 16C12.25 16.1381 12.1381 16.25 12 16.25V17.75C12.9665 17.75 13.75 16.9665 13.75 16H12.25ZM12 13.75C12.1381 13.75 12.25 13.8619 12.25 14H13.75C13.75 13.0335 12.9665 12.25 12 12.25V13.75ZM12 12.25C11.0335 12.25 10.25 13.0335 10.25 14H11.75C11.75 13.8619 11.8619 13.75 12 13.75V12.25Z" fill="white"/>
</svg>
