<svg width="24" height="24" viewBox="0 0 24 24" fill="none" xmlns="http://www.w3.org/2000/svg">
<path d="M11.1123 5.71147C11.4855 4.99204 12.5146 4.99204 12.8877 5.71147L14.3987 8.62455C14.5388 8.8948 14.7945 9.08647 15.0932 9.14529L18.2721 9.77123C19.0337 9.92118 19.3415 10.8438 18.8225 11.421L16.5447 13.9543C16.3511 14.1695 16.2604 14.4581 16.2958 14.7454L16.6687 17.7667C16.7748 18.6267 15.8114 19.2054 15.102 18.7079L12.5742 16.935C12.2296 16.6932 11.7704 16.6932 11.4258 16.935L8.89804 18.7079C8.1886 19.2054 7.22522 18.6267 7.33135 17.7667L7.7042 14.7454C7.73966 14.4581 7.64888 14.1695 7.45534 13.9543L5.17751 11.421C4.65854 10.8438 4.96636 9.92118 5.72792 9.77123L8.90686 9.14529C9.20556 9.08647 9.4612 8.8948 9.60137 8.62455L11.1123 5.71147Z" stroke="white" stroke-width="1.5" stroke-linecap="round" stroke-linejoin="round"/>
</svg>
