<svg width="24" height="24" viewBox="0 0 24 24" fill="none" xmlns="http://www.w3.org/2000/svg">
<path d="M19 10H19.75V9.68934L19.5303 9.46967L19 10ZM14 5L14.5303 4.46967L14.3107 4.25H14V5ZM10.5303 12.5303C10.8232 12.2374 10.8232 11.7626 10.5303 11.4697C10.2374 11.1768 9.76256 11.1768 9.46967 11.4697L10.5303 12.5303ZM8.70711 13.2929L9.23744 13.8232L8.70711 13.2929ZM8.70711 14.7071L9.23744 14.1768L8.70711 14.7071ZM9.46967 16.5303C9.76256 16.8232 10.2374 16.8232 10.5303 16.5303C10.8232 16.2374 10.8232 15.7626 10.5303 15.4697L9.46967 16.5303ZM13.5303 11.4697C13.2374 11.1768 12.7626 11.1768 12.4697 11.4697C12.1768 11.7626 12.1768 12.2374 12.4697 12.5303L13.5303 11.4697ZM14.2929 13.2929L13.7626 13.8232H13.7626L14.2929 13.2929ZM14.2929 14.7071L13.7626 14.1768L14.2929 14.7071ZM12.4697 15.4697C12.1768 15.7626 12.1768 16.2374 12.4697 16.5303C12.7626 16.8232 13.2374 16.8232 13.5303 16.5303L12.4697 15.4697ZM17 18.25H7V19.75H17V18.25ZM5.75 17V7H4.25V17H5.75ZM18.25 10V17H19.75V10H18.25ZM14 4.25H7V5.75H14V4.25ZM7 18.25C6.30964 18.25 5.75 17.6904 5.75 17H4.25C4.25 18.5188 5.48122 19.75 7 19.75V18.25ZM17 19.75C18.5188 19.75 19.75 18.5188 19.75 17H18.25C18.25 17.6904 17.6904 18.25 17 18.25V19.75ZM5.75 7C5.75 6.30964 6.30964 5.75 7 5.75V4.25C5.48122 4.25 4.25 5.48122 4.25 7H5.75ZM19 9.25H16V10.75H19V9.25ZM14.75 8V5H13.25V8H14.75ZM16 9.25C15.3096 9.25 14.75 8.69036 14.75 8H13.25C13.25 9.51878 14.4812 10.75 16 10.75V9.25ZM9.46967 11.4697L8.17678 12.7626L9.23744 13.8232L10.5303 12.5303L9.46967 11.4697ZM8.17678 15.2374L9.46967 16.5303L10.5303 15.4697L9.23744 14.1768L8.17678 15.2374ZM8.17678 12.7626C7.49336 13.446 7.49336 14.554 8.17678 15.2374L9.23744 14.1768C9.13981 14.0791 9.13981 13.9209 9.23744 13.8232L8.17678 12.7626ZM12.4697 12.5303L13.7626 13.8232L14.8232 12.7626L13.5303 11.4697L12.4697 12.5303ZM13.7626 14.1768L12.4697 15.4697L13.5303 16.5303L14.8232 15.2374L13.7626 14.1768ZM13.7626 13.8232C13.8602 13.9209 13.8602 14.0791 13.7626 14.1768L14.8232 15.2374C15.5066 14.554 15.5066 13.446 14.8232 12.7626L13.7626 13.8232ZM13.4697 5.53033L18.4697 10.5303L19.5303 9.46967L14.5303 4.46967L13.4697 5.53033Z" fill="white"/>
</svg>
