<svg width="24" height="24" viewBox="0 0 24 24" fill="none" xmlns="http://www.w3.org/2000/svg">
<path d="M14.3928 11.1429C14.3928 12.4644 13.3215 13.5357 12 13.5357C10.6784 13.5357 9.60712 12.4644 9.60712 11.1429C9.60712 9.82132 10.6784 8.75 12 8.75C13.3215 8.75 14.3928 9.82132 14.3928 11.1429Z" stroke="white" stroke-width="1.5"/>
<path d="M15.9286 19C15.9286 17.4286 14.1697 15.8571 12 15.8571C9.83029 15.8571 8.07141 17.4286 8.07141 19" stroke="white" stroke-width="1.5" stroke-linecap="round" stroke-linejoin="round"/>
<path d="M20 12C20 16.4183 16.4183 20 12 20C7.58172 20 4 16.4183 4 12C4 7.58172 7.58172 4 12 4C16.4183 4 20 7.58172 20 12Z" stroke="white" stroke-width="1.5"/>
</svg>
