<svg width="24" height="24" viewBox="0 0 24 24" fill="none" xmlns="http://www.w3.org/2000/svg">
<path d="M19 9L12 12.5M12 12.5L5 9M12 12.5L12 20M5.00002 10.1606V14.8394C5.00002 15.5571 5.38459 16.2198 6.00774 16.5758L11.0077 19.433C11.6226 19.7843 12.3774 19.7843 12.9923 19.433L17.9923 16.5758C18.6154 16.2198 19 15.5571 19 14.8394V10.1606C19 9.44293 18.6154 8.78025 17.9923 8.42416L12.9923 5.56702C12.3774 5.21567 11.6226 5.21567 11.0077 5.56702L6.00774 8.42416C5.38459 8.78025 5.00002 9.44293 5.00002 10.1606Z" stroke="white" stroke-width="1.5"/>
</svg>
