<svg width="24" height="24" viewBox="0 0 24 24" fill="none" xmlns="http://www.w3.org/2000/svg">
<path d="M11.4142 6.41421L11.9445 5.88388V5.88388L11.4142 6.41421ZM10.5858 5.58579L10.0555 6.11612L10.5858 5.58579ZM10.5303 11.5303C10.8232 11.2374 10.8232 10.7626 10.5303 10.4697C10.2374 10.1768 9.76256 10.1768 9.46967 10.4697L10.5303 11.5303ZM8.70711 12.2929L8.17678 11.7626H8.17678L8.70711 12.2929ZM8.70711 13.7071L9.23744 13.1768L8.70711 13.7071ZM9.46967 15.5303C9.76256 15.8232 10.2374 15.8232 10.5303 15.5303C10.8232 15.2374 10.8232 14.7626 10.5303 14.4697L9.46967 15.5303ZM13.5303 10.4697C13.2374 10.1768 12.7626 10.1768 12.4697 10.4697C12.1768 10.7626 12.1768 11.2374 12.4697 11.5303L13.5303 10.4697ZM14.2929 12.2929L13.7626 12.8232H13.7626L14.2929 12.2929ZM14.2929 13.7071L13.7626 13.1768L14.2929 13.7071ZM12.4697 14.4697C12.1768 14.7626 12.1768 15.2374 12.4697 15.5303C12.7626 15.8232 13.2374 15.8232 13.5303 15.5303L12.4697 14.4697ZM18.25 9V17H19.75V9H18.25ZM17 18.25H7V19.75H17V18.25ZM5.75 17V7H4.25V17H5.75ZM7 5.75H9.17157V4.25H7V5.75ZM10.0555 6.11612L10.8839 6.94454L11.9445 5.88388L11.1161 5.05546L10.0555 6.11612ZM12.8284 7.75H17V6.25H12.8284V7.75ZM10.8839 6.94454C11.3996 7.46027 12.0991 7.75 12.8284 7.75V6.25C12.4969 6.25 12.179 6.1183 11.9445 5.88388L10.8839 6.94454ZM9.17157 5.75C9.50309 5.75 9.82104 5.8817 10.0555 6.11612L11.1161 5.05546C10.6004 4.53973 9.90092 4.25 9.17157 4.25V5.75ZM7 18.25C6.30964 18.25 5.75 17.6904 5.75 17H4.25C4.25 18.5188 5.48122 19.75 7 19.75V18.25ZM18.25 17C18.25 17.6904 17.6904 18.25 17 18.25V19.75C18.5188 19.75 19.75 18.5188 19.75 17H18.25ZM19.75 9C19.75 7.48122 18.5188 6.25 17 6.25V7.75C17.6904 7.75 18.25 8.30964 18.25 9H19.75ZM5.75 7C5.75 6.30964 6.30964 5.75 7 5.75V4.25C5.48122 4.25 4.25 5.48122 4.25 7H5.75ZM9.46967 10.4697L8.17678 11.7626L9.23744 12.8232L10.5303 11.5303L9.46967 10.4697ZM8.17678 14.2374L9.46967 15.5303L10.5303 14.4697L9.23744 13.1768L8.17678 14.2374ZM8.17678 11.7626C7.49336 12.446 7.49336 13.554 8.17678 14.2374L9.23744 13.1768C9.13981 13.0791 9.13981 12.9209 9.23744 12.8232L8.17678 11.7626ZM12.4697 11.5303L13.7626 12.8232L14.8232 11.7626L13.5303 10.4697L12.4697 11.5303ZM13.7626 13.1768L12.4697 14.4697L13.5303 15.5303L14.8232 14.2374L13.7626 13.1768ZM13.7626 12.8232C13.8602 12.9209 13.8602 13.0791 13.7626 13.1768L14.8232 14.2374C15.5066 13.554 15.5066 12.446 14.8232 11.7626L13.7626 12.8232Z" fill="#DB61A2"/>
</svg>
