<svg width="24" height="24" viewBox="0 0 24 24" fill="none" xmlns="http://www.w3.org/2000/svg"><path d="M19 10h.75v-.31l-.22-.22L19 10zm-5-5l.53-.53-.22-.22H14V5zm-3.47 7.53a.75.75 0 10-1.06-1.06l1.06 1.06zm-1.823.763l.53.53-.53-.53zm0 1.414l.53-.53-.53.53zm.763 1.823a.75.75 0 101.06-1.06l-1.06 1.06zm4.06-5.06a.75.75 0 10-1.06 1.06l1.06-1.06zm.763 1.823l-.53.53.53-.53zm0 1.414l-.53-.53.53.53zm-1.823.763a.75.75 0 101.06 1.06l-1.06-1.06zM17 18.25H7v1.5h10v-1.5zM5.75 17V7h-1.5v10h1.5zm12.5-7v7h1.5v-7h-1.5zM14 4.25H7v1.5h7v-1.5zm-7 14c-.69 0-1.25-.56-1.25-1.25h-1.5A2.75 2.75 0 007 19.75v-1.5zm10 1.5A2.75 2.75 0 0019.75 17h-1.5c0 .69-.56 1.25-1.25 1.25v1.5zM5.75 7c0-.69.56-1.25 1.25-1.25v-1.5A2.75 2.75 0 004.25 7h1.5zM19 9.25h-3v1.5h3v-1.5zM14.75 8V5h-1.5v3h1.5zM16 9.25c-.69 0-1.25-.56-1.25-1.25h-1.5A2.75 2.75 0 0016 10.75v-1.5zm-6.53 2.22l-1.293 1.293 1.06 1.06 1.293-1.293-1.06-1.06zm-1.293 3.767L9.47 16.53l1.06-1.06-1.293-1.293-1.06 1.06zm0-2.474a1.75 1.75 0 000 2.474l1.06-1.06a.25.25 0 010-.354l-1.06-1.06zm4.293-.233l1.293 1.293 1.06-1.06-1.293-1.293-1.06 1.06zm1.293 1.647L12.47 15.47l1.06 1.06 1.293-1.293-1.06-1.06zm0-.354a.25.25 0 010 .354l1.06 1.06a1.75 1.75 0 000-2.474l-1.06 1.06zM13.47 5.53l5 5 1.06-1.06-5-5-1.06 1.06z" fill="#000"/></svg>