<svg width="24" height="24" viewBox="0 0 24 24" fill="none" xmlns="http://www.w3.org/2000/svg"><path d="M13 14.25a.75.75 0 000 1.5v-1.5zm-2 1.5a.75.75 0 000-1.5v1.5zm-.143 0a.75.75 0 100-1.5v1.5zm2.286-1.5a.75.75 0 100 1.5v-1.5zM16 7v.75h.75V7H16zM8 7h-.75v.75H8V7zm11.25 2v6h1.5V9h-1.5zm-14.5 6V9h-1.5v6h1.5zM18 6.25H6v1.5h12v-1.5zm2 8h-7v1.5h7v-1.5zm-9 0H4v1.5h7v-1.5zM20.75 9A2.75 2.75 0 0018 6.25v1.5c.69 0 1.25.56 1.25 1.25h1.5zm-16 0c0-.69.56-1.25 1.25-1.25v-1.5A2.75 2.75 0 003.25 9h1.5zm14.5 6v3h1.5v-3h-1.5zM18 19.25H6v1.5h12v-1.5zM4.75 18v-3h-1.5v3h1.5zm6.107-3.75H4v1.5h6.857v-1.5zm9.143 0h-6.857v1.5H20v-1.5zm-14 5c-.69 0-1.25-.56-1.25-1.25h-1.5A2.75 2.75 0 006 20.75v-1.5zM19.25 18c0 .69-.56 1.25-1.25 1.25v1.5A2.75 2.75 0 0020.75 18h-1.5zm-4-12v1h1.5V6h-1.5zm.75.25H8v1.5h8v-1.5zM8.75 7V6h-1.5v1h1.5zM14 3.25h-4v1.5h4v-1.5zM16.75 6A2.75 2.75 0 0014 3.25v1.5c.69 0 1.25.56 1.25 1.25h1.5zm-8 0c0-.69.56-1.25 1.25-1.25v-1.5A2.75 2.75 0 007.25 6h1.5zm3.5 8v2h1.5v-2h-1.5zm-.5 2v-2h-1.5v2h1.5zm.25.25a.25.25 0 01-.25-.25h-1.5c0 .966.784 1.75 1.75 1.75v-1.5zm.25-.25a.25.25 0 01-.25.25v1.5A1.75 1.75 0 0013.75 16h-1.5zM12 13.75a.25.25 0 01.25.25h1.5A1.75 1.75 0 0012 12.25v1.5zm0-1.5A1.75 1.75 0 0010.25 14h1.5a.25.25 0 01.25-.25v-1.5z" fill="#000"/></svg>