<svg width="448" height="448" viewBox="0 0 448 448" fill="none" xmlns="http://www.w3.org/2000/svg">
<path d="M212.686 283.314L120 376L152.922 407.029C168.042 422.149 157.334 448 135.952 448H23.952C10.697 448 0 437.255 0 424V312C0 290.618 25.803 279.91 40.922 295.029L72 328L164.686 235.314C170.934 229.066 181.065 229.066 187.313 235.314L212.686 260.687C218.935 266.935 218.935 277.065 212.686 283.314V283.314ZM235.314 164.686L328 72L295.078 40.971C279.958 25.851 290.666 0 312.048 0H424.048C437.303 0 448 10.745 448 24V136C448 157.382 422.197 168.09 407.078 152.971L376 120L283.314 212.686C277.066 218.934 266.935 218.934 260.687 212.686L235.314 187.313C229.065 181.065 229.065 170.935 235.314 164.686V164.686Z" fill="white"/>
</svg>
