<svg width="24" height="24" viewBox="0 0 24 24" fill="none" xmlns="http://www.w3.org/2000/svg"><path d="M19.75 15a.75.75 0 00-1.5 0h1.5zm-14 0a.75.75 0 00-1.5 0h1.5zm11.495-3.184a.75.75 0 10-1.061-1.06l1.06 1.06zm-4.538 3.477l.53.53-.53-.53zm-1.414 0l-.53.53.53-.53zm-3.477-4.538a.75.75 0 00-1.06 1.061l1.06-1.06zm3.434 4.46a.75.75 0 001.5 0h-1.5zM12.75 5a.75.75 0 00-1.5 0h1.5zm5.5 10v3h1.5v-3h-1.5zM18 18.25H6v1.5h12v-1.5zM5.75 18v-3h-1.5v3h1.5zm.25.25a.25.25 0 01-.25-.25h-1.5c0 .966.784 1.75 1.75 1.75v-1.5zM18.25 18a.25.25 0 01-.25.25v1.5A1.75 1.75 0 0019.75 18h-1.5zm-2.066-7.245l-4.007 4.008 1.06 1.06 4.008-4.007-1.061-1.06zm-4.36 4.008l-4.008-4.008-1.06 1.061 4.007 4.007 1.06-1.06zm.353 0a.25.25 0 01-.354 0l-1.06 1.06a1.75 1.75 0 002.474 0l-1.06-1.06zm.573.451V5h-1.5v10.214h1.5z" fill="#EB5757"/></svg>