<svg width="24" height="24" viewBox="0 0 24 24" fill="none" xmlns="http://www.w3.org/2000/svg"><path d="M18.25 9a.75.75 0 001.5 0h-1.5zM16 16.75a.75.75 0 000-1.5v1.5zm-2 3a.75.75 0 000-1.5v1.5zm-6-1.5a.75.75 0 000 1.5v-1.5zM3.75 14V6h-1.5v8h1.5zM17 3.25H5v1.5h12v-1.5zM18.25 6v3h1.5V6h-1.5zM16 15.25H5v1.5h11v-1.5zM2.25 14A2.75 2.75 0 005 16.75v-1.5c-.69 0-1.25-.56-1.25-1.25h-1.5zM17 4.75c.69 0 1.25.56 1.25 1.25h1.5A2.75 2.75 0 0017 3.25v1.5zM3.75 6c0-.69.56-1.25 1.25-1.25v-1.5A2.75 2.75 0 002.25 6h1.5zm16.5 4v8h1.5v-8h-1.5zM20 18.25h-2v1.5h2v-1.5zM17.75 18v-8h-1.5v8h1.5zM20 8.25h-2v1.5h2v-1.5zm-2 10a.25.25 0 01-.25-.25h-1.5c0 .966.784 1.75 1.75 1.75v-1.5zm2.25-.25a.25.25 0 01-.25.25v1.5A1.75 1.75 0 0021.75 18h-1.5zm1.5-8A1.75 1.75 0 0020 8.25v1.5a.25.25 0 01.25.25h1.5zm-4 0a.25.25 0 01.25-.25v-1.5A1.75 1.75 0 0016.25 10h1.5zM14 18.25H8v1.5h6v-1.5z" fill="#fff"/></svg>