<svg width="24" height="24" viewBox="0 0 24 24" fill="none" xmlns="http://www.w3.org/2000/svg"><path d="M5 7.154C5 5.964 5.964 5 7.154 5H8.23c1.19 0 2.154.964 2.154 2.154V8.23c0 1.19-.965 2.154-2.154 2.154H7.154A2.154 2.154 0 015 8.23V7.154zm8.615 0c0-1.19.965-2.154 2.154-2.154h1.077C18.036 5 19 5.964 19 7.154V8.23c0 1.19-.964 2.154-2.154 2.154H15.77a2.154 2.154 0 01-2.154-2.154V7.154zM5 15.77c0-1.19.964-2.155 2.154-2.155H8.23c1.19 0 2.154.965 2.154 2.154v1.077c0 1.19-.965 2.154-2.154 2.154H7.154A2.154 2.154 0 015 16.846V15.77zm8.615 0c0-1.19.965-2.155 2.154-2.155h1.077c1.19 0 2.154.965 2.154 2.154v1.077c0 1.19-.964 2.154-2.154 2.154H15.77a2.154 2.154 0 01-2.154-2.154V15.77z" stroke="#fff" stroke-width="1.5"/></svg>