<svg width="24" height="24" viewBox="0 0 24 24" fill="none" xmlns="http://www.w3.org/2000/svg"><path d="M11.112 5.711a1 1 0 011.776 0l1.51 2.914a1 1 0 00.695.52l3.18.626a1 1 0 01.55 1.65l-2.278 2.533a1 1 0 00-.25.791l.374 3.022c.106.86-.858 1.438-1.567.94l-2.528-1.772a1 1 0 00-1.148 0l-2.528 1.773c-.71.497-1.673-.081-1.567-.941l.373-3.022a1 1 0 00-.249-.79L5.178 11.42a1 1 0 01.55-1.65l3.179-.626a1 1 0 00.694-.52l1.511-2.914z" stroke="#fff" stroke-width="1.5" stroke-linecap="round" stroke-linejoin="round"/></svg>