<svg xmlns="http://www.w3.org/2000/svg" width="512" height="512" viewBox="0 0 512 512"><path d="M488.533 4.267C486.4 2.133 484.266 0 480 0H32c-2.133 0-6.4 2.133-8.533 4.267-2.134 2.133-2.134 4.267-2.134 8.533L64 439.467c0 4.267 4.267 8.533 6.4 8.533l192 64h8.534L441.6 448c4.267-2.133 6.4-4.267 6.4-8.533L490.667 12.8c0-2.133 0-6.4-2.134-8.533zM362.667 366.934c0 4.267-4.267 6.4-6.4 8.533l-85.333 32H262.4l-96-32c-4.267-2.133-6.4-4.267-6.4-8.533L149.333 313.6c-2.133-6.4 2.133-10.667 8.533-12.8s10.667 2.133 12.8 8.533l8.533 46.934 87.467 29.867 76.8-27.733L364.8 238.934H151.467c-6.4 0-10.667-4.267-10.667-10.667s4.267-10.667 10.667-10.667h217.6l14.934-85.333h-243.2c-6.4 0-10.667-4.267-10.667-10.667s4.267-10.667 10.667-10.667h256c2.133 0 6.4 2.133 8.533 4.267 2.133 2.133 2.133 6.4 2.133 8.533z" fill="#fff" data-original="#000000" xmlns="http://www.w3.org/2000/svg"/></svg>