<svg xmlns="http://www.w3.org/2000/svg" width="512" height="512" viewBox="0 0 512 512"><path d="M488.533 4.267C486.4 2.133 484.266 0 480 0H32c-2.133 0-6.4 2.133-8.533 4.267-2.134 2.133-2.134 4.267-2.134 8.533L64 439.467c0 4.267 4.267 8.533 6.4 8.533l192 64h8.534L441.6 448c4.267-2.133 6.4-4.267 6.4-8.533L490.667 12.8c0-2.133 0-6.4-2.134-8.533zm-93.866 125.866h-243.2L160 215.467h213.333c2.133 0 6.4 2.133 8.533 4.267 2.133 2.133 2.133 6.4 2.133 8.533l-21.333 138.667c0 4.267-2.133 6.4-6.4 8.533l-85.333 32h-8.534l-96-32c-4.267-2.133-6.4-4.267-6.4-8.533L149.333 313.6c-2.133-6.4 2.133-10.667 8.533-12.8s10.667 2.133 12.8 8.533l8.533 46.934 87.467 29.867 76.8-27.733 19.2-119.467h-211.2c-6.4 0-10.667-4.267-10.667-8.533l-10.667-106.667c0-2.133 0-6.4 2.133-8.533s4.267-4.267 8.533-4.267h256c6.4 0 10.667 4.267 10.667 10.667.002 6.399-6.399 8.532-12.798 8.532z" fill="#fff" data-original="#000000" xmlns="http://www.w3.org/2000/svg"/></svg>