<svg width="24" height="24" viewBox="0 0 24 24" fill="none" xmlns="http://www.w3.org/2000/svg"><path d="M14.25 6a.75.75 0 001.5 0h-1.5zm1.5-2a.75.75 0 00-1.5 0h1.5zM18 8.25a.75.75 0 000 1.5v-1.5zm2 1.5a.75.75 0 000-1.5v1.5zm-2 4.5a.75.75 0 000 1.5v-1.5zm2 1.5a.75.75 0 000-1.5v1.5zM4 8.25a.75.75 0 000 1.5v-1.5zm2 1.5a.75.75 0 000-1.5v1.5zm-2 4.5a.75.75 0 000 1.5v-1.5zm2 1.5a.75.75 0 000-1.5v1.5zM8.25 6a.75.75 0 001.5 0h-1.5zm1.5-2a.75.75 0 00-1.5 0h1.5zm4.5 16a.75.75 0 001.5 0h-1.5zm1.5-2a.75.75 0 00-1.5 0h1.5zm-7.5 2a.75.75 0 001.5 0h-1.5zm1.5-2a.75.75 0 00-1.5 0h1.5zm7.5-10v8h1.5V8h-1.5zM16 17.25H8v1.5h8v-1.5zM6.75 16V8h-1.5v8h1.5zM16 5.25H8v1.5h8v-1.5zm-8 12c-.69 0-1.25-.56-1.25-1.25h-1.5A2.75 2.75 0 008 18.75v-1.5zM17.25 16c0 .69-.56 1.25-1.25 1.25v1.5A2.75 2.75 0 0018.75 16h-1.5zm1.5-8A2.75 2.75 0 0016 5.25v1.5c.69 0 1.25.56 1.25 1.25h1.5zm-12 0c0-.69.56-1.25 1.25-1.25v-1.5A2.75 2.75 0 005.25 8h1.5zm7.5 3v2h1.5v-2h-1.5zM13 14.25h-2v1.5h2v-1.5zM9.75 13v-2h-1.5v2h1.5zM13 8.25h-2v1.5h2v-1.5zm-2 6c-.69 0-1.25-.56-1.25-1.25h-1.5A2.75 2.75 0 0011 15.75v-1.5zM14.25 13c0 .69-.56 1.25-1.25 1.25v1.5A2.75 2.75 0 0015.75 13h-1.5zm1.5-2A2.75 2.75 0 0013 8.25v1.5c.69 0 1.25.56 1.25 1.25h1.5zm-6 0c0-.69.56-1.25 1.25-1.25v-1.5A2.75 2.75 0 008.25 11h1.5zm6-5V4h-1.5v2h1.5zM18 9.75h2v-1.5h-2v1.5zm0 6h2v-1.5h-2v1.5zm-14-6h2v-1.5H4v1.5zm0 6h2v-1.5H4v1.5zM9.75 6V4h-1.5v2h1.5zm6 14v-2h-1.5v2h1.5zm-6 0v-2h-1.5v2h1.5z" fill="#fff"/></svg>